<svg width="70" height="70" viewBox="0 0 70 70" fill="none" xmlns="http://www.w3.org/2000/svg">
<path fill-rule="evenodd" clip-rule="evenodd" d="M70 35C70 40.5877 68.6906 45.8696 66.3619 50.5556H37.1875C42.5746 43.2214 48.125 34.3401 48.125 25.2778C48.125 13.6157 39.2404 3.79819 27.1595 0.881596C29.6801 0.304717 32.3045 0 35 0C54.33 0 70 15.67 70 35ZM39.375 25.2778C39.375 15.6128 30.5606 7.77778 19.6875 7.77778C5.1392 7.77778 0 24.3194 0 35C0 54.33 15.67 70 35 70C45.3658 70 54.6791 65.4937 61.0879 58.3333H19.6875C20.4571 57.4611 21.263 56.5622 22.0909 55.6388C29.7842 47.0579 39.375 36.3606 39.375 25.2778Z" fill="#7859CF"/>
</svg>
